<?xml version="1.0" standalone="no"?>
<!DOCTYPE svg PUBLIC "-//W3C//DTD SVG 20010904//EN"
 "http://www.w3.org/TR/2001/REC-SVG-20010904/DTD/svg10.dtd">
<svg version="1.0" xmlns="http://www.w3.org/2000/svg"
 width="637.000000pt" height="652.000000pt" viewBox="0 0 637.000000 652.000000"
 preserveAspectRatio="xMidYMid meet">
<metadata>
Created by potrace 1.15, written by Peter Selinger 2001-2017
</metadata>
<g transform="translate(0.000000,652.000000) scale(0.100000,-0.100000)"
fill="#000000" stroke="none">
<path d="M2583 6446 c-15 -13 -53 -38 -85 -55 l-56 -32 5 41 c3 22 1 40 -4 40
-5 0 -29 -42 -54 -93 l-44 -94 -37 5 c-40 5 -52 -10 -20 -24 22 -9 -92 -33
-165 -34 -29 0 -53 -4 -53 -8 0 -5 20 -23 45 -41 25 -18 45 -36 45 -42 0 -5
-29 -43 -65 -84 -66 -76 -69 -83 -19 -65 15 6 29 9 31 6 6 -6 -59 -107 -80
-125 -28 -22 -20 -34 18 -27 40 8 40 9 20 -38 -8 -19 -14 -40 -13 -44 2 -5
-20 -27 -48 -49 -201 -160 -414 -575 -565 -1103 -29 -102 -53 -186 -54 -187 0
-1 -33 7 -72 17 -74 19 -178 29 -190 17 -3 -4 -1 -7 5 -7 7 0 12 -12 12 -27 0
-15 17 -63 37 -107 26 -55 34 -81 25 -84 -42 -14 -168 -110 -231 -177 -81 -86
-110 -139 -136 -257 -9 -43 -18 -78 -20 -78 -12 0 -172 63 -179 71 -18 17 -52
9 -92 -21 -24 -18 -57 -32 -87 -36 -57 -8 -81 -34 -172 -184 -32 -52 -66 -104
-75 -115 -21 -25 -80 -206 -80 -245 0 -16 4 -40 9 -53 7 -19 5 -34 -11 -63
-24 -45 -34 -140 -21 -199 7 -32 5 -46 -8 -70 -17 -29 -17 -34 6 -144 36 -170
90 -318 140 -386 12 -16 30 -61 39 -100 17 -69 57 -188 79 -234 33 -67 210
-229 390 -355 45 -32 75 -62 89 -89 11 -22 26 -46 32 -53 12 -12 180 -31 225
-26 25 3 119 71 174 126 18 18 87 76 154 129 158 127 231 206 280 304 22 43
42 89 46 103 17 61 27 -15 28 -210 0 -113 4 -240 7 -282 7 -76 9 -79 57 -130
l50 -53 -3 -63 c-2 -46 -7 -62 -17 -62 -27 0 -44 -44 -70 -185 -42 -218 -98
-419 -155 -550 -120 -277 -134 -315 -162 -409 -25 -89 -29 -120 -12 -104 3 4
14 40 25 80 23 93 53 172 119 318 62 134 155 414 170 503 15 93 59 307 65 318
8 12 35 12 35 -1 0 -10 28 -23 122 -60 l57 -22 -15 -37 c-9 -20 -20 -48 -26
-64 -5 -15 -14 -27 -18 -27 -5 0 -15 -12 -23 -27 -31 -62 -136 -250 -252 -453
-141 -248 -181 -324 -206 -399 -35 -100 -19 -87 27 22 26 59 48 106 50 104 3
-2 -9 -60 -26 -127 -16 -68 -28 -125 -26 -128 9 -8 26 9 26 26 0 23 57 243 79
306 10 28 64 132 121 230 56 99 123 216 147 260 41 75 44 78 39 41 -39 -269
-79 -865 -58 -865 11 0 18 78 27 295 11 253 47 593 65 605 4 3 15 30 23 61 9
30 28 81 42 113 20 46 29 57 43 51 9 -4 60 -11 114 -15 91 -9 105 -7 250 27
84 19 163 37 175 40 18 4 51 -24 183 -158 89 -90 160 -159 158 -152 -2 6 -61
73 -133 149 -143 151 -147 155 -137 171 5 8 314 103 336 103 2 0 0 -18 -5 -39
-5 -21 -13 -106 -18 -187 -8 -128 -15 -173 -55 -320 -47 -175 -166 -695 -166
-726 0 -16 13 -18 140 -18 l140 0 -35 46 c-19 25 -35 52 -35 60 0 20 -1 19
-53 -31 -26 -25 -53 -45 -59 -45 -7 0 -2 8 12 17 57 40 121 137 124 189 0 13
4 24 9 24 11 0 9 -15 -13 -73 -19 -49 -19 -57 -6 -89 9 -20 27 -50 42 -67 23
-28 32 -31 79 -31 l54 0 5 43 c3 23 10 89 16 147 11 104 83 550 98 602 5 20
25 -88 70 -370 64 -398 69 -428 76 -421 2 2 -16 125 -40 274 -25 149 -55 342
-69 430 l-24 160 22 110 22 110 7 -95 c20 -251 135 -922 169 -980 13 -23 11 3
-5 69 -68 262 -133 683 -144 928 -6 150 -5 170 16 262 l23 100 77 -39 c42 -22
84 -40 93 -40 23 0 106 -309 173 -640 28 -140 106 -613 106 -643 0 -4 61 -7
136 -7 l137 0 -6 30 c-4 16 -18 127 -32 247 -50 423 -105 716 -185 984 -16 56
-30 104 -30 106 0 6 50 -2 238 -38 84 -17 162 -27 172 -24 10 3 20 17 22 30
l3 25 31 -19 c25 -15 34 -30 44 -73 16 -70 74 -238 205 -598 59 -162 135 -378
169 -480 68 -206 64 -195 72 -188 7 8 -79 269 -182 552 -46 126 -81 232 -79
235 3 3 38 -27 78 -65 91 -89 154 -141 347 -289 85 -65 160 -123 165 -130 6
-6 35 -30 65 -52 30 -23 70 -57 89 -76 32 -34 32 -36 20 -70 -9 -25 -10 -45
-3 -69 l10 -33 492 -3 492 -2 -1 167 0 168 -150 140 c-169 157 -208 185 -261
185 -34 0 -41 6 -101 83 -96 122 -142 199 -266 442 -62 121 -154 289 -205 374
-105 176 -174 253 -351 391 -127 98 -198 169 -225 224 -11 21 -25 78 -31 125
-43 343 -131 717 -233 991 -46 121 -46 122 -46 252 0 130 0 130 30 168 l30 38
-39 7 -39 6 -32 99 -33 98 33 46 c19 25 31 48 29 51 -3 2 -30 5 -61 6 -67 2
-66 2 -106 60 -59 87 -125 136 -221 166 -47 14 -88 28 -90 29 -2 2 3 14 12 28
l16 24 -77 -3 -78 -3 34 104 33 104 57 -42 c207 -152 394 -333 485 -469 142
-214 218 -490 174 -631 -15 -47 -15 -48 6 -48 12 0 44 -7 72 -15 40 -12 60
-13 102 -4 62 12 74 29 93 124 26 134 -43 361 -163 540 -160 238 -348 390
-827 670 -299 175 -421 265 -480 353 -37 55 -37 54 21 238 22 71 42 145 44
164 2 19 6 67 10 105 3 39 8 85 11 103 5 33 6 33 30 18 l24 -16 0 45 c0 33 4
45 15 45 21 0 19 13 -15 79 l-29 59 47 19 47 19 -58 27 c-65 29 -67 47 -6 47
21 0 39 4 39 8 0 4 -36 37 -80 73 -43 35 -79 66 -80 69 0 3 20 11 45 18 25 7
45 16 45 20 0 5 -38 19 -85 31 -47 13 -85 27 -85 32 0 5 9 14 20 21 34 22 22
28 -52 28 l-73 0 38 22 c20 12 37 25 37 29 0 4 -29 4 -65 1 -54 -4 -145 4
-270 23 -11 2 -29 4 -40 4 -17 1 -13 7 20 36 34 30 36 34 14 26 -15 -6 -47
-12 -70 -16 -24 -3 -68 -10 -98 -15 -30 -6 -56 -8 -59 -6 -2 2 1 13 7 24 21
40 10 41 -61 7 -40 -19 -88 -38 -107 -41 -37 -8 -36 -12 -15 56 8 27 -8 25
-43 -4z m-453 -876 c0 -11 -7 -37 -15 -57 -8 -19 -15 -44 -15 -55 0 -15 3 -17
19 -9 16 9 19 6 24 -26 5 -27 1 -43 -14 -64 -25 -36 -27 -109 -4 -179 12 -36
29 -61 61 -87 52 -44 76 -110 77 -213 1 -81 -11 -162 -23 -155 -23 14 -83 -9
-118 -45 -56 -56 -184 -155 -260 -199 -60 -35 -212 -101 -231 -101 -8 0 -4 26
35 227 42 214 142 506 257 753 38 82 55 105 117 163 40 37 76 67 81 67 5 0 9
-9 9 -20z m885 -30 c88 -6 185 -11 216 -13 63 -2 64 0 -36 -67 -69 -47 -88
-67 -82 -83 3 -8 2 -31 -3 -51 -9 -42 -7 -43 22 -16 30 28 38 25 38 -13 0 -38
15 -57 46 -57 30 0 41 17 47 74 5 52 17 66 59 66 27 0 45 -28 39 -59 -2 -13 0
-13 13 -2 9 8 16 22 16 32 0 11 7 19 18 19 13 1 10 6 -13 27 -16 15 -22 24
-12 20 27 -10 20 8 -8 21 -14 6 -25 16 -25 21 0 16 91 25 112 12 24 -15 25 5
1 31 -9 11 -11 18 -5 18 7 0 12 7 12 15 0 16 15 21 23 8 11 -18 -15 -193 -42
-282 -16 -53 -41 -155 -56 -226 -35 -169 -45 -185 -220 -393 -27 -33 -61 -74
-75 -92 -23 -30 -31 -33 -113 -43 -62 -8 -109 -8 -161 0 l-73 10 -169 169
-170 169 -34 120 c-18 66 -40 126 -49 133 -8 6 -12 12 -8 12 4 0 0 14 -8 30
-11 22 -14 41 -8 68 4 20 6 44 5 52 -1 8 8 -4 20 -28 12 -23 27 -41 33 -39 6
2 12 51 15 115 5 95 9 114 25 127 17 12 18 16 5 24 -8 6 -12 12 -10 13 45 34
93 49 88 27 -2 -6 28 -12 77 -15 44 -3 84 -9 89 -14 13 -13 -24 -46 -76 -69
-45 -19 -47 -21 -38 -50 11 -41 19 -51 35 -51 12 0 12 5 3 25 -13 29 -1 48 38
59 22 7 22 6 7 -35 -13 -39 -13 -45 5 -68 40 -54 75 -35 88 48 7 46 8 47 84
21 42 -14 57 -15 65 -6 6 6 18 10 28 8 11 -2 29 6 42 18 14 13 25 17 28 10 4
-7 5 -6 3 1 -1 7 -25 20 -52 29 -47 15 -186 100 -199 121 -8 12 98 12 300 -1z
m-738 -184 c19 -32 32 -60 30 -62 -1 -2 -18 18 -37 44 -19 25 -38 46 -42 44
-5 -1 -7 -5 -5 -8 1 -3 -10 -12 -25 -20 -36 -19 -35 -25 5 -49 45 -27 51 -29
42 -15 -5 9 -4 11 4 6 9 -6 9 -11 0 -22 -6 -7 -15 -11 -20 -8 -12 7 2 -29 15
-39 7 -5 3 -6 -8 -3 -13 4 -17 2 -13 -7 4 -10 -2 -13 -19 -9 -32 6 -30 -12 4
-37 24 -18 25 -19 5 -14 -13 3 -23 3 -23 -1 0 -9 103 -66 121 -66 18 0 33 -49
19 -63 -9 -10 -75 30 -104 62 -11 11 -24 21 -31 21 -25 0 -46 40 -61 118 l-17
82 24 34 c13 19 34 40 46 45 13 6 23 15 23 22 0 28 38 -2 67 -55z m1142 -470
c9 -7 70 -41 136 -75 131 -68 367 -220 362 -234 -1 -5 -26 -17 -56 -27 -29 -9
-66 -27 -81 -39 -21 -15 -44 -21 -82 -21 -29 0 -66 -7 -82 -15 l-29 -15 6 35
c7 42 -2 44 -34 10 -13 -14 -32 -30 -42 -36 -29 -16 -128 -29 -147 -19 -11 6
-26 4 -45 -6 -26 -13 -31 -12 -80 16 -29 17 -56 37 -59 45 -3 9 -19 15 -40 15
l-35 0 21 38 c12 20 53 72 91 116 38 43 86 105 107 137 20 32 40 55 44 52 3
-4 6 3 6 15 0 25 16 28 39 8z m-1019 -151 c12 -13 26 -22 31 -20 4 3 11 0 15
-6 4 -8 3 -9 -4 -5 -7 4 -12 3 -12 -2 0 -11 30 -38 39 -35 3 1 8 -1 11 -4 3
-4 -1 -3 -7 1 -26 15 -12 -13 20 -40 17 -15 32 -30 32 -34 0 -5 27 -35 60 -68
40 -40 62 -57 67 -49 5 7 8 3 8 -11 0 -13 4 -21 9 -18 5 3 11 0 14 -8 7 -17
92 -77 100 -70 3 3 8 0 12 -6 3 -6 1 -9 -6 -8 -6 2 -14 -3 -17 -11 -2 -8 0
-11 6 -7 6 4 8 -2 5 -13 -3 -12 3 -26 16 -37 12 -10 21 -23 21 -29 0 -5 -5 -3
-10 5 -23 36 -7 -5 26 -65 33 -60 54 -75 54 -39 0 8 6 14 14 14 8 0 21 17 29
38 9 20 16 31 16 23 1 -11 5 -9 16 5 17 22 20 38 5 29 -16 -10 -11 1 7 16 15
12 16 12 8 -1 -4 -8 3 -6 16 6 38 33 50 38 42 17 -6 -16 -5 -17 11 -4 16 13
17 13 14 0 -4 -19 38 -72 52 -64 5 3 10 14 10 23 1 9 7 2 16 -17 8 -19 12 -36
10 -38 -2 -3 -7 5 -11 16 -15 49 -26 3 -23 -100 2 -60 4 -109 5 -109 1 0 9 7
17 16 9 8 16 11 16 6 0 -5 -7 -15 -15 -22 -20 -17 -19 -57 1 -68 11 -6 13 -11
5 -16 -6 -4 -11 -1 -12 6 -1 7 -4 2 -8 -12 -8 -27 10 -47 31 -34 7 5 8 3 4 -5
-5 -7 -14 -10 -22 -7 -8 3 -14 1 -14 -3 0 -5 6 -11 13 -14 15 -6 41 29 32 42
-3 5 2 12 11 15 9 4 14 9 11 13 -7 7 33 40 53 45 8 2 15 -1 15 -7 4 -30 18
-65 27 -65 5 0 7 -4 3 -9 -3 -5 2 -16 10 -24 8 -9 15 -20 15 -25 0 -9 67 -235
77 -262 4 -8 7 -17 8 -20 1 -3 5 -12 8 -20 4 -8 9 -26 11 -40 3 -14 10 -41 16
-60 20 -67 80 -346 94 -440 8 -52 16 -104 19 -115 2 -11 2 -14 0 -7 -7 20 -25
13 -18 -8 3 -10 -1 -33 -10 -50 -13 -26 -13 -30 -1 -30 8 0 18 -4 21 -10 4 -6
-2 -7 -17 -1 -15 6 -22 15 -20 27 3 15 1 17 -9 7 -19 -19 -22 -17 -43 22 -11
19 -26 35 -35 35 -12 0 -13 2 -3 9 10 6 10 10 -1 19 -12 10 -14 6 -11 -23 1
-19 -1 -33 -6 -30 -9 6 -8 -14 2 -30 6 -10 -17 -64 -24 -57 -2 2 -21 -4 -42
-13 -33 -14 -41 -14 -53 -2 -12 12 -12 14 1 14 8 0 13 -4 10 -9 -3 -4 0 -8 5
-8 14 0 14 13 0 27 -7 7 -5 27 7 69 40 138 46 209 15 190 -6 -4 -11 -2 -11 3
0 6 -4 11 -10 11 -5 0 -10 -9 -10 -20 0 -11 -4 -20 -10 -20 -15 0 -50 -33 -50
-47 0 -7 -5 -13 -11 -13 -5 0 -7 5 -3 11 4 7 -2 7 -17 -1 -31 -16 -39 -25 -15
-16 16 5 17 4 7 -8 -7 -8 -19 -12 -27 -9 -8 3 -21 0 -29 -7 -9 -7 -17 -11 -19
-9 -10 9 -449 745 -508 850 l-66 117 122 7 c196 11 219 10 265 -12 23 -12 40
-16 38 -9 -7 22 -63 40 -127 40 -36 1 -68 6 -72 11 -5 6 -8 5 -8 -2 0 -7 -5
-13 -11 -13 -5 0 -7 5 -4 11 5 7 -8 9 -41 5 -35 -4 -42 -3 -24 3 25 9 25 9 -5
11 -37 3 -34 3 -69 -6 -21 -5 -27 -4 -22 5 4 6 1 11 -9 11 -9 0 -14 4 -10 9 3
6 -4 8 -15 6 -11 -2 -20 1 -20 6 0 6 -6 9 -12 6 -7 -2 -23 12 -36 32 -39 60
-272 543 -272 563 0 16 52 162 63 176 9 12 58 29 88 31 8 1 26 -10 39 -24z
m-166 -47 c-4 -13 -11 -34 -17 -48 l-11 -25 -4 28 c-6 48 -22 29 -22 -27 0
-56 13 -105 39 -146 9 -13 57 -108 106 -210 202 -412 285 -560 783 -1383 56
-92 102 -169 102 -171 0 -2 16 -33 36 -68 70 -122 192 -374 219 -453 18 -50
28 -100 28 -133 0 -68 -18 -89 -26 -32 -15 111 -300 681 -403 806 -13 16 0
-11 30 -61 246 -414 396 -773 351 -838 -12 -17 -14 -14 -26 37 -7 31 -16 56
-21 56 -11 0 -10 -17 6 -80 16 -62 23 -44 -81 -212 -30 -49 -58 -88 -62 -88
-4 0 -13 17 -20 38 -22 61 -62 144 -67 139 -8 -7 56 -171 72 -183 11 -9 12
-13 2 -21 -27 -21 -89 -43 -218 -81 -234 -68 -217 -67 -365 -28 -71 18 -141
37 -154 41 -18 6 -23 5 -19 -6 2 -8 36 -22 74 -33 38 -10 77 -21 88 -25 25 -9
-244 -88 -344 -101 -99 -13 -245 -12 -295 1 -22 6 -55 13 -74 16 -22 4 -49 21
-80 52 -47 47 -48 49 -54 126 -9 101 -8 375 2 398 6 15 10 12 28 -20 48 -86
255 -373 269 -373 7 0 -4 18 -36 60 -56 73 -210 309 -251 384 l-42 79 11 61
c15 77 29 172 37 257 5 58 9 66 24 62 13 -3 22 -22 31 -64 15 -72 34 -104 36
-62 1 16 20 82 43 148 23 66 47 154 53 197 10 71 9 78 -11 111 -26 42 -27 101
-4 158 14 36 15 50 3 108 -6 36 -21 81 -31 99 -10 18 -19 42 -19 53 0 30 -63
122 -109 159 l-40 33 42 33 c24 20 53 34 70 34 47 0 31 31 -28 51 -22 7 -53
25 -70 39 -53 47 -117 94 -177 131 l-59 36 47 42 c26 23 58 44 71 47 40 10 25
24 -26 24 -32 0 -70 10 -112 29 -35 15 -95 39 -134 52 l-70 24 80 5 c74 5 80
6 78 26 -1 12 -28 64 -60 115 -31 52 -56 102 -55 112 0 9 -3 17 -8 17 -5 0
-13 15 -19 33 -9 26 -23 39 -62 57 -27 13 -55 30 -61 37 -14 17 -38 17 -38 0
0 -7 31 -28 69 -46 46 -22 71 -40 75 -54 3 -12 4 -22 3 -23 -1 -1 -30 -9 -64
-17 l-62 -14 -35 78 c-20 43 -36 90 -36 104 0 34 25 33 165 -5 119 -32 311
-52 323 -33 4 6 26 13 49 16 33 5 45 2 65 -16 22 -21 141 -222 657 -1115 448
-776 610 -1084 713 -1357 17 -46 18 -47 13 -13 -17 111 -224 526 -517 1038
-92 161 -571 989 -742 1283 -47 81 -99 159 -116 173 -30 26 -32 44 -5 44 20 0
157 84 240 148 l70 53 7 -45 c3 -25 15 -70 27 -100 22 -59 158 -336 165 -336
3 0 -26 64 -64 143 -72 148 -120 278 -120 321 0 28 52 93 84 106 12 5 31 9 44
9 20 1 22 -3 16 -21z m1671 -190 c-10 -29 -24 -60 -31 -69 -8 -8 -14 -23 -14
-32 0 -9 -9 -32 -21 -51 -23 -39 -11 -48 21 -16 16 16 33 20 80 20 l60 0 -31
-62 c-30 -59 -36 -79 -54 -168 l-6 -35 21 28 c27 34 65 38 55 5 -6 -18 -5 -20
11 -13 32 15 77 8 139 -21 54 -25 74 -29 192 -34 l133 -5 -79 -117 c-59 -88
-80 -127 -84 -162 -8 -54 8 -63 17 -11 7 35 8 36 44 29 44 -8 162 -43 162 -48
0 -2 -20 -37 -45 -77 -25 -40 -45 -77 -45 -82 0 -5 -7 -24 -16 -43 -9 -19 -14
-43 -11 -53 3 -15 -6 -27 -35 -46 -39 -26 -40 -28 -34 -71 4 -29 2 -43 -4 -39
-6 3 -10 14 -10 23 0 27 -55 164 -115 287 -33 67 -66 155 -84 226 -17 64 -31
119 -31 123 0 4 -4 5 -9 2 -8 -5 -5 -26 25 -146 4 -17 -3 -10 -22 20 -41 66
-91 130 -97 124 -3 -3 26 -55 65 -115 41 -65 74 -130 81 -159 7 -30 16 -49 23
-46 12 5 69 -110 118 -234 45 -117 80 -394 94 -755 12 -282 0 -502 -22 -428
-14 49 -92 435 -116 582 -16 91 -29 152 -29 136 -2 -50 46 -324 99 -571 28
-128 50 -243 50 -255 0 -13 9 -51 20 -83 11 -33 20 -73 20 -90 0 -22 3 -27 9
-17 13 20 45 -131 36 -167 -8 -32 -85 -106 -170 -163 -68 -46 -63 -46 -242 -9
-62 13 -113 27 -113 31 0 5 -41 9 -91 9 l-91 0 34 37 c64 73 115 119 262 242
144 120 149 123 188 118 22 -3 48 -13 59 -23 22 -20 38 -12 19 11 -16 19 -86
38 -114 31 -20 -5 -96 -64 -216 -166 -49 -41 -52 -42 -38 -15 36 72 53 222 53
455 -1 293 -38 564 -111 809 -30 100 -42 104 -14 4 85 -306 131 -715 110 -966
-18 -213 -28 -244 -111 -340 -39 -45 -96 -108 -127 -141 -52 -55 -59 -59 -113
-65 l-57 -7 21 27 c147 179 187 230 212 264 36 50 17 31 -66 -65 -35 -41 -66
-77 -69 -80 -3 -3 -36 -42 -74 -87 -37 -46 -74 -83 -82 -83 -19 0 -26 -11 135
205 166 223 159 214 139 195 -9 -8 -84 -103 -168 -210 -113 -144 -162 -199
-189 -212 -46 -21 -125 -32 -146 -21 -14 8 -11 17 23 69 88 134 149 230 155
247 3 9 13 17 22 17 8 0 15 9 15 20 0 11 9 29 20 40 11 11 20 25 20 31 0 13
47 98 102 183 21 32 36 61 34 65 -2 3 -7 56 -10 116 -25 388 -133 947 -278
1425 -22 74 -44 144 -49 155 -24 56 -28 75 -17 75 7 0 6 5 -3 13 -9 6 -48 104
-88 217 -39 113 -76 212 -81 220 -17 27 -12 -15 9 -70 11 -27 16 -50 12 -50
-21 0 -71 85 -71 120 0 25 25 53 43 48 7 -2 92 -48 190 -103 l177 -100 39 -90
c36 -82 158 -446 242 -719 18 -60 35 -104 36 -99 8 24 -180 613 -257 806 l-43
108 -93 52 c-138 77 -114 95 50 38 49 -18 91 -30 93 -28 2 3 -26 16 -63 29
l-67 25 49 12 c27 7 59 22 72 33 16 16 22 18 22 7 0 -29 21 -39 46 -22 13 8
52 17 86 20 35 3 70 12 79 19 17 16 132 64 138 59 1 -2 -5 -28 -14 -57z m191
-228 c32 -11 81 -37 108 -58 55 -41 121 -126 111 -142 -12 -20 -77 -10 -161
25 -46 19 -100 35 -119 35 -36 0 -37 2 -39 53 0 27 25 107 34 107 3 0 33 -9
66 -20z m-2770 -72 c5 -7 3 -8 -6 -3 -9 5 -10 2 -5 -14 7 -22 4 -24 -48 -36
-25 -5 -27 -8 -16 -21 12 -14 14 -14 26 2 7 10 13 13 13 8 0 -6 -5 -15 -12
-22 -9 -9 -4 -19 21 -42 17 -17 37 -28 43 -24 6 4 8 3 5 -3 -4 -6 2 -18 13
-28 26 -24 17 -35 -31 -35 -53 0 -49 -16 9 -30 53 -13 164 -59 144 -60 -7 0
-22 5 -34 11 -22 12 -72 4 -63 -10 2 -5 -2 -12 -11 -15 -10 -4 -13 -2 -8 7 5
9 4 9 -6 0 -7 -6 -19 -9 -26 -6 -8 3 -14 0 -14 -6 0 -6 8 -11 18 -11 21 0 101
-25 148 -46 36 -16 40 -24 39 -76 0 -33 1 -35 16 -22 19 17 29 18 29 3 0 -5
-4 -8 -9 -5 -11 7 -23 -22 -15 -35 10 -16 24 -10 18 9 -5 14 -4 14 4 3 8 -11
5 -26 -10 -54 -16 -32 -17 -41 -6 -48 10 -7 9 -9 -4 -9 -9 0 -20 -5 -24 -12
-4 -6 -3 -8 3 -5 15 10 25 -21 13 -41 -8 -14 -10 -14 -11 -2 -1 8 -1 18 0 23
2 14 -17 7 -23 -9 -9 -25 -7 -41 4 -24 7 11 10 12 10 2 0 -8 -9 -16 -20 -19
-11 -3 -17 -9 -14 -14 3 -5 0 -9 -7 -9 -8 0 -8 -4 1 -15 10 -12 10 -15 -3 -15
-15 0 -32 -28 -22 -38 2 -3 7 3 11 12 3 9 10 14 14 11 4 -3 15 6 24 20 15 22
20 24 39 14 21 -12 21 -11 7 6 -14 17 -14 18 9 6 13 -7 21 -8 17 -3 -3 6 -2
13 4 17 6 4 8 10 5 15 -3 5 0 12 6 16 8 4 9 3 5 -4 -7 -12 0 -14 56 -14 15 -1
25 -4 23 -8 -3 -4 7 -29 21 -55 20 -35 29 -44 36 -33 8 10 9 9 5 -4 -3 -9 -1
-31 6 -48 9 -23 9 -33 0 -38 -6 -4 -17 -21 -24 -38 l-14 -31 -57 11 c-31 7
-66 9 -77 4 -12 -4 -21 -4 -21 1 0 12 -247 23 -290 13 -29 -7 -18 -9 64 -14
54 -3 101 -10 105 -15 11 -17 51 -35 51 -23 0 6 5 8 10 5 6 -4 8 -11 5 -16 -4
-5 -2 -9 4 -9 12 0 141 -98 157 -118 9 -13 12 -12 17 2 4 10 11 14 17 11 14
-9 13 8 -2 23 -9 9 -9 15 1 25 10 10 16 7 32 -12 24 -30 20 -46 -12 -45 -33 0
-45 -23 -23 -47 9 -11 17 -33 17 -50 0 -16 3 -26 6 -20 6 8 14 -158 13 -259
-1 -142 -4 -173 -13 -159 -7 10 -8 6 -3 -14 3 -15 2 -33 -4 -40 -6 -6 -13 -36
-17 -66 -8 -66 -13 -89 -18 -99 -3 -4 -8 -25 -11 -47 -4 -21 -12 -42 -18 -46
-6 -4 -8 -14 -5 -22 5 -12 -1 -13 -36 -5 -23 5 -50 16 -59 25 -10 9 -18 13
-18 9 0 -4 -10 3 -22 16 -13 13 -17 17 -10 8 6 -9 12 -20 12 -25 0 -5 -11 6
-24 23 -13 18 -77 68 -143 112 -114 76 -122 84 -147 139 -15 33 -26 77 -26
102 -1 67 -15 127 -36 150 -15 17 -18 33 -16 84 2 35 -2 79 -9 98 -11 31 -9
41 24 119 47 108 47 137 2 187 -19 21 -35 42 -35 47 -1 18 -67 113 -96 136
-48 39 -84 59 -94 53 -20 -12 -9 7 20 37 32 32 38 63 19 117 -8 24 -14 29 -24
21 -8 -7 -22 -7 -44 1 -29 10 -31 13 -25 48 14 83 37 158 62 199 62 107 210
231 322 272 64 22 86 24 96 8z m-555 -508 c8 0 3 -7 -9 -16 -27 -19 -29 -44
-3 -44 11 0 23 -4 26 -10 9 -14 47 -12 88 5 47 19 46 19 57 -11 14 -35 -1 -58
-44 -71 -32 -10 -36 -9 -68 24 -47 49 -108 79 -108 53 0 -5 6 -10 13 -10 15 0
107 -83 107 -96 0 -5 -35 -44 -78 -87 -71 -70 -80 -76 -92 -62 -22 26 -94 73
-124 81 -33 8 -31 14 30 100 50 70 67 83 111 85 27 2 27 2 3 6 -13 3 -38 16
-55 30 -16 15 -43 31 -58 38 l-29 12 32 20 32 20 78 -33 c43 -19 84 -34 91
-34z m-181 -21 l37 -21 -45 -41 c-24 -23 -64 -70 -89 -104 l-44 -63 -70 35
c-38 20 -69 39 -69 43 0 4 18 34 40 67 65 97 158 130 240 84z m319 -198 c19
-1 131 -116 131 -135 0 -15 -100 -158 -119 -170 -5 -3 -14 7 -20 23 -23 54
-135 141 -183 141 -30 0 -21 14 50 83 58 56 73 65 98 62 16 -2 35 -4 43 -4z
m3585 -151 c3 0 3 8 0 18 -5 13 -4 14 4 3 6 -8 8 -20 5 -28 -3 -7 -1 -13 5
-13 13 0 62 -119 95 -230 58 -192 97 -372 113 -520 3 -30 7 -67 9 -81 2 -15 6
-37 10 -50 5 -20 4 -21 -5 -9 -10 12 -11 12 -5 -5 4 -11 7 -55 7 -97 0 -43 4
-75 9 -72 5 3 9 -2 9 -10 0 -9 -6 -16 -12 -16 -8 0 -9 -3 -3 -8 9 -6 12 -26
15 -87 1 -11 -2 -34 -5 -52 -6 -28 -4 -33 24 -47 17 -9 31 -14 31 -11 0 3 16
-4 37 -15 39 -21 68 -16 38 7 -11 7 -14 13 -8 13 13 0 12 18 -2 40 -8 13 -7
13 8 1 9 -7 15 -17 12 -21 -3 -5 -1 -11 5 -15 6 -4 8 -10 5 -15 -6 -10 25 -23
34 -14 3 4 0 9 -6 11 -7 3 -13 9 -13 15 0 6 6 5 15 -2 9 -7 14 -19 11 -26 -4
-9 2 -13 16 -11 11 1 23 -5 25 -13 4 -12 3 -13 -5 -1 -5 7 -15 11 -21 7 -6 -4
-20 -2 -32 4 -11 7 -23 9 -26 6 -6 -5 60 -36 107 -51 24 -7 25 -7 5 10 -20 16
-20 16 3 5 12 -6 20 -15 17 -20 -3 -5 4 -14 16 -20 16 -9 20 -9 14 0 -14 23
111 -79 156 -126 96 -104 231 -328 399 -664 51 -102 105 -203 121 -225 16 -22
61 -82 99 -132 l69 -93 -32 -16 c-37 -19 -94 -63 -188 -147 -37 -33 -70 -59
-73 -58 -9 2 -35 -23 -31 -29 2 -3 -11 -21 -27 -40 -17 -19 -27 -28 -23 -20 4
8 17 25 28 38 11 12 18 22 14 22 -10 0 -80 -50 -71 -51 5 0 0 -5 -11 -10 -57
-28 -89 -50 -67 -45 12 2 20 0 16 -5 -3 -5 0 -9 6 -9 6 0 8 -5 5 -10 -3 -6 1
-13 9 -16 12 -5 13 -9 3 -25 -6 -10 -16 -19 -21 -19 -4 0 -3 6 3 14 16 19 -4
53 -37 61 -23 6 -24 7 -6 20 18 14 18 14 1 15 -10 0 -16 4 -12 9 6 11 -61 35
-75 26 -5 -3 -14 -4 -20 0 -13 8 0 36 14 29 6 -3 2 2 -8 10 -11 9 -25 16 -32
16 -6 0 -17 7 -24 15 -7 9 -19 14 -26 11 -7 -3 -16 0 -20 6 -4 7 -3 8 4 4 7
-4 12 -5 12 -3 0 2 -19 17 -42 33 -24 15 -57 41 -75 57 -20 19 -36 26 -45 22
-7 -5 -10 -5 -6 -1 9 10 -30 48 -42 41 -6 -4 -10 -14 -11 -23 0 -11 -2 -12 -6
-4 -3 7 0 19 6 26 9 10 3 21 -27 47 -38 33 -84 84 -151 167 -18 23 -37 39 -42
36 -5 -3 -6 2 -3 11 5 11 2 14 -10 9 -9 -3 -16 -11 -16 -17 0 -6 -3 -8 -6 -5
-3 3 0 15 7 26 11 18 7 28 -31 86 -24 36 -48 62 -53 59 -6 -4 -7 -1 -2 6 9 16
-15 62 -28 54 -6 -3 -7 -1 -4 4 4 6 -7 37 -24 69 -17 33 -28 51 -25 41 4 -11
2 -16 -5 -12 -6 4 -8 13 -5 21 7 20 -4 45 -17 37 -5 -3 -7 -2 -4 4 4 5 -5 41
-19 79 -15 38 -26 75 -27 82 0 6 -4 12 -9 12 -5 0 -7 4 -4 9 4 5 -3 37 -13 70
l-19 62 21 13 c19 12 67 27 82 26 13 -1 63 32 97 63 l37 34 -37 3 c-20 2 -54
3 -74 4 -22 0 -33 3 -25 8 12 8 -10 13 -46 10 -10 -1 -16 2 -12 7 3 5 -5 11
-17 13 -21 3 -23 9 -25 63 -1 36 -16 105 -37 173 l-36 114 6 286 c7 296 -3
536 -31 742 -15 110 -15 118 4 163 6 16 8 33 5 39 -4 6 -2 8 4 4 6 -3 18 7 28
23 l18 30 37 -30 c20 -16 39 -29 43 -29z m-3425 -50 c19 0 64 -45 75 -73 4
-12 -9 -51 -34 -105 l-41 -86 -23 50 c-22 47 -69 94 -95 94 -6 0 -11 3 -11 8
0 15 104 134 108 123 2 -6 11 -11 21 -11z m884 -741 c-21 -71 -40 -129 -43
-129 -3 0 -11 23 -18 52 -12 53 -27 71 -49 63 -8 -2 -13 4 -13 16 0 11 32 51
78 96 96 94 99 86 45 -98z m-657 -146 c88 -59 156 -127 158 -156 1 -13 7 -21
15 -19 9 2 11 -3 7 -14 -3 -9 -3 -40 1 -68 6 -43 8 -47 14 -26 6 22 7 23 8 4
1 -12 -5 -27 -13 -33 -12 -10 -31 -79 -29 -108 0 -7 -3 -11 -7 -8 -12 7 -30
-52 -23 -73 3 -9 2 -14 -2 -10 -5 5 -14 -1 -22 -12 -20 -28 -30 -25 -38 13
-20 91 -62 175 -80 159 -5 -4 -6 -2 -2 3 7 14 -1 25 -37 53 -15 12 -33 19 -39
15 -5 -3 -7 -1 -4 4 4 6 -10 21 -30 33 -34 20 -38 20 -49 6 -10 -15 -12 -15
-17 -1 -4 8 -1 14 5 12 7 -1 13 7 14 18 0 12 6 31 13 43 7 12 9 28 5 34 -4 6
-3 8 3 5 15 -9 54 78 46 99 -4 11 -2 15 4 11 6 -4 10 3 10 16 1 60 1 60 89 0z
m-1061 23 c57 -40 407 -166 545 -196 99 -22 104 -25 128 -69 27 -48 21 -64
-35 -88 -43 -18 -43 -18 -44 20 -2 32 -2 32 -8 -6 -9 -55 -25 -48 -34 13 -11
76 -20 77 -15 1 2 -44 -1 -66 -9 -68 -7 -3 -15 8 -19 24 -14 64 -24 79 -19 27
4 -41 2 -53 -11 -58 -33 -13 -63 -5 -83 20 -21 26 -28 55 -13 53 32 -5 74 3
79 16 7 21 -25 55 -52 55 -13 0 -30 10 -38 23 -13 18 -16 19 -16 5 -1 -13 -9
-18 -31 -18 -52 0 -53 -52 -2 -75 38 -17 22 -69 -19 -63 -22 3 -26 12 -43 93
-21 95 -23 101 -31 93 -3 -3 1 -37 10 -77 19 -93 19 -101 -5 -71 -10 14 -29
62 -41 108 -12 45 -26 82 -31 82 -10 0 -11 6 12 -79 12 -40 18 -76 15 -79 -11
-11 -46 33 -55 72 -23 95 -32 118 -51 137 -32 32 -52 25 -47 -16 2 -19 1 -35
-3 -35 -11 0 -58 99 -65 138 -7 35 1 40 31 18z m2985 -1630 c0 -2 -7 -21 -16
-42 -20 -47 -14 -132 10 -149 17 -13 21 -25 8 -25 -14 0 -42 57 -42 86 0 25
-1 26 -17 12 -10 -8 -26 -18 -35 -21 -10 -4 -18 -13 -18 -22 0 -18 26 -20 33
-2 2 6 12 -6 21 -27 9 -22 14 -41 11 -44 -2 -3 -9 8 -15 23 -10 25 -14 27 -59
23 -27 -1 -47 0 -44 5 2 4 13 7 24 7 12 0 19 7 19 20 0 13 -7 20 -20 20 -14 0
-20 7 -20 21 0 13 -4 18 -12 13 -7 -5 -9 -2 -5 9 3 8 9 31 12 51 6 30 12 35
39 39 45 6 126 8 126 3z"/>
</g>
</svg>
